<svg version="1.1" id="Layer_1" xmlns="http://www.w3.org/2000/svg" xmlns:xlink="http://www.w3.org/1999/xlink" x="0px" y="0px"
	 width="100%" viewBox="0 0 615 505" enable-background="new 0 0 615 505" xml:space="preserve">
<path fill="#FEFEFE" opacity="1.000000" stroke="none" 
	d="
M359.000000,506.000000 
	C239.359924,506.000000 120.219856,506.000000 1.039890,506.000000 
	C1.039890,337.730835 1.039890,169.461655 1.039890,1.096238 
	C205.890060,1.096238 410.780182,1.096238 615.835144,1.096238 
	C615.835144,169.333206 615.835144,337.666595 615.835144,506.000000 
	C530.461670,506.000000 444.980835,506.000000 359.000000,506.000000 
M179.713837,162.972336 
	C179.471085,162.991852 179.228348,163.011383 178.464447,162.618256 
	C172.821732,157.299652 167.179016,151.981064 161.341568,146.478912 
	C160.146866,147.819061 158.885132,149.234406 157.984558,150.244614 
	C164.013367,155.731247 169.646805,160.858047 175.296890,166.553955 
	C175.514084,167.100677 175.731277,167.647385 175.948471,168.194107 
	C176.379242,167.859802 176.810013,167.525497 177.713882,166.909988 
	C178.196747,166.365494 178.679596,165.820984 179.724564,165.036423 
	C179.932709,164.352463 180.140839,163.668518 180.311584,162.278076 
	C180.524963,162.177689 180.738342,162.077286 181.615616,161.866013 
	C182.693436,161.093597 183.771255,160.321182 184.589172,159.735046 
	C181.814987,156.722122 179.477798,154.183807 176.886475,151.369492 
	C178.089111,151.077682 178.563751,150.962524 179.728119,151.042862 
	C181.312485,151.917633 182.807053,153.164246 184.503723,153.573990 
	C186.671539,154.097504 189.002411,153.945801 191.870911,154.002548 
	C192.575562,153.094879 193.280228,152.187210 194.549881,150.913742 
	C195.360718,150.155258 196.171555,149.396790 197.599075,148.398407 
	C200.192322,146.576523 202.785568,144.754623 204.895508,143.272293 
	C202.960968,140.472183 201.294830,138.060562 199.628693,135.648956 
	C200.132095,135.637405 200.635513,135.625854 201.138916,135.614304 
	C201.884308,133.891525 202.629700,132.168762 203.375092,130.445984 
	C202.961563,130.279648 202.548035,130.113312 202.134491,129.946976 
	C200.964615,130.997284 199.794724,132.047592 198.113312,133.557129 
	C195.551483,129.428879 193.304138,125.807365 190.969437,122.045097 
	C189.698685,122.742981 187.921097,123.719215 186.477310,124.512131 
	C190.732010,130.924576 194.678207,136.818680 198.561066,142.754211 
	C199.849274,144.723450 200.300766,146.536270 196.536606,146.209549 
	C191.809875,140.818176 187.083130,135.426819 182.432266,129.465576 
	C181.528397,129.607666 180.624512,129.749756 179.086639,130.150116 
	C179.662781,132.770508 180.238922,135.390915 180.858612,138.796524 
	C181.734558,141.188019 182.610504,143.579514 183.486450,145.971008 
	C183.169159,146.248230 182.851868,146.525436 182.534576,146.802643 
	C178.164246,144.129974 173.793915,141.457306 169.191620,138.642776 
	C167.944992,139.732224 166.503860,140.991653 165.062729,142.251083 
	C165.529373,141.996918 165.996033,141.742737 166.462692,141.488571 
	C168.292282,144.002670 170.121872,146.516769 172.114441,149.687622 
	C175.080261,153.805450 178.046082,157.923279 181.015488,162.452286 
	C180.903473,162.720947 180.712616,162.909821 179.713837,162.972336 
M240.849792,115.250229 
	C242.226852,114.797737 243.603897,114.345238 245.721481,113.908737 
	C247.923981,116.513535 250.126480,119.118332 252.690109,122.150238 
	C253.867737,121.551689 255.410370,120.767616 257.739197,119.877823 
	C259.931183,119.877823 262.123169,119.877823 263.961731,119.877823 
	C263.591156,116.075760 263.295074,113.037628 263.734253,109.978508 
	C264.428986,110.192268 265.123749,110.406029 266.035645,111.219208 
	C271.300140,121.675003 280.899109,116.604080 288.802979,117.460228 
	C290.150726,117.606224 291.625427,116.580124 293.041473,116.095497 
	C292.924408,115.667755 292.807343,115.240013 292.690277,114.812271 
	C290.187805,114.812271 287.685333,114.812271 285.040100,114.812271 
	C285.040100,112.358315 285.040100,110.284431 285.040100,109.403885 
	C287.410065,107.829491 289.024536,106.756996 290.638977,105.684509 
	C290.414642,105.342049 290.190308,104.999596 289.965942,104.657143 
	C288.318176,104.815475 286.670380,104.973808 284.658813,105.167091 
	C284.658813,101.164726 284.658813,97.763023 284.658813,93.891060 
	C287.385864,93.891060 289.851074,93.891060 292.316284,93.891060 
	C288.164032,89.719215 283.457336,92.071983 279.216553,91.376633 
	C280.008759,100.461540 280.400452,108.796600 279.644409,117.100838 
	C278.996552,117.293526 278.348694,117.486214 277.700836,117.678902 
	C275.398346,115.115425 273.095886,112.551949 270.653473,109.209190 
	C271.390045,107.975243 272.147644,106.753265 272.859528,105.505234 
	C275.647339,100.617767 273.610138,95.795570 267.467560,93.417290 
	C263.446655,93.750648 259.425751,94.084000 255.582199,94.402649 
	C256.730408,102.060982 257.903381,109.093018 258.733032,116.165321 
	C258.878357,117.404434 257.581818,118.812691 256.368378,119.618340 
	C252.674850,113.712700 248.816437,107.901764 245.349991,101.865700 
	C243.289703,98.278137 241.067368,97.054359 236.899170,100.020172 
	C237.845413,101.860909 238.823120,103.762856 239.806061,105.732544 
	C239.810623,106.009758 239.889053,106.263611 239.125275,106.006912 
	C237.192368,109.875191 237.410812,111.455231 240.032654,112.475197 
	C240.032654,112.475197 239.960434,112.459694 239.572876,112.843010 
	C239.643326,113.010506 239.713760,113.177994 238.775375,113.593903 
	C239.211639,114.212097 239.647903,114.830292 240.849792,115.250229 
M328.257355,98.567429 
	C328.383087,98.261940 328.382233,97.956802 328.747833,97.344284 
	C328.923035,96.810349 329.098267,96.276421 329.273468,95.742485 
	C328.840027,95.680298 328.406616,95.618111 327.272461,95.234406 
	C322.893860,94.381599 322.965302,98.105011 321.281647,101.040863 
	C319.797668,103.713371 318.313690,106.385872 316.829712,109.058372 
	C316.430481,108.991905 316.031250,108.925430 315.632019,108.858955 
	C314.938477,103.578926 314.244904,98.298897 313.501282,92.637604 
	C311.691864,92.785088 309.975006,92.925018 308.084930,93.079071 
	C307.738586,96.193657 307.415710,99.097107 306.856293,102.758751 
	C305.924194,107.603455 304.992065,112.448151 303.999420,117.607651 
	C304.950012,117.607651 306.110992,117.607651 307.206421,117.607651 
	C307.517273,112.617767 307.809174,107.932304 308.679871,102.968765 
	C308.822388,102.809074 308.964905,102.649376 309.570007,102.768394 
	C309.689819,102.902718 309.809662,103.037041 309.873169,104.004181 
	C310.528961,107.685463 310.852722,111.472443 311.977234,115.004486 
	C312.560730,116.837250 314.560669,118.219048 316.314148,120.357819 
	C317.692078,120.474831 319.070007,120.591843 321.175110,120.674896 
	C322.138611,120.694244 323.102081,120.713593 324.677429,121.122360 
	C327.694855,122.104218 330.712280,123.086067 333.560120,124.012741 
	C334.000092,120.799843 334.386597,117.977257 334.721832,115.529198 
	C337.310120,115.137512 339.093567,114.867622 340.877014,114.597733 
	C340.813568,114.150223 340.750092,113.702721 340.686615,113.255211 
	C339.328369,112.782379 337.970154,112.309540 336.105042,111.660255 
	C337.228333,108.020111 338.266479,104.655830 339.405945,100.963219 
	C342.419189,101.863907 344.702606,102.546448 347.076080,103.255898 
	C346.081299,99.976837 341.921326,98.106781 335.370911,97.654533 
	C332.798950,105.660149 330.263428,113.552345 327.727905,121.444542 
	C327.180511,121.341858 326.633118,121.239174 326.085724,121.136490 
	C325.737854,119.751495 325.389984,118.366493 325.301758,116.234131 
	C325.795288,113.131409 326.288818,110.028687 327.093903,106.623192 
	C327.082550,106.074661 327.071228,105.526138 327.335693,104.337189 
	C327.482269,103.199310 327.628845,102.061424 328.089844,100.627792 
	C328.074890,100.079659 328.059937,99.531525 328.257355,98.567429 
M399.435089,162.496460 
	C399.030914,161.618439 398.626740,160.740417 398.672943,159.268707 
	C401.638153,153.391083 404.769775,147.587906 407.455170,141.585098 
	C408.153015,140.025192 407.456573,137.841522 407.400513,135.944366 
	C405.573944,136.247223 403.747406,136.550095 401.220459,136.954193 
	C399.707642,137.895584 398.252472,138.950394 396.669891,139.754578 
	C393.445923,141.392883 390.153320,142.896057 386.538910,143.805359 
	C386.234650,142.721405 385.930420,141.637451 385.556580,140.305588 
	C384.556671,140.714844 383.820831,141.024399 383.078796,141.318375 
	C377.875580,143.379745 374.268250,140.918732 375.906433,135.657700 
	C377.089935,131.856796 379.929321,128.045471 383.061707,125.516342 
	C386.631775,122.633804 389.996765,124.886772 390.598511,129.520767 
	C390.797729,131.055161 391.587402,132.512878 392.107147,134.005646 
	C392.840271,133.866226 393.573425,133.726807 394.306549,133.587372 
	C394.306549,131.440552 395.011108,128.954056 394.171295,127.212105 
	C391.871887,122.442520 387.965454,119.910515 382.353088,121.201332 
	C377.040161,122.423279 372.295593,127.586418 371.473480,133.041229 
	C370.264557,141.062332 375.238922,146.317108 383.313080,145.614380 
	C384.196655,145.537476 385.113068,145.837830 385.846161,146.619461 
	C385.101807,147.645142 384.357483,148.670822 383.613129,149.696487 
	C384.937408,149.434021 386.502106,149.532639 387.540741,148.841141 
	C390.614288,146.794739 393.480896,144.444931 397.294830,148.675064 
	C396.485321,151.371658 395.675842,154.068253 394.326782,156.946686 
	C394.492706,157.732315 394.658661,158.517960 395.039673,159.684113 
	C395.239441,159.910950 395.486603,160.058151 396.050781,160.723907 
	C397.318970,161.896805 398.587158,163.069702 400.146332,164.847122 
	C401.793243,166.500748 403.440155,168.154358 405.087067,169.807968 
	C405.384094,169.512131 405.681152,169.216309 405.978180,168.920471 
	C405.285889,167.908676 404.593567,166.896896 404.046234,166.096954 
	C409.817688,160.838394 415.298065,155.845078 421.005463,150.191360 
	C420.790131,149.789825 420.574799,149.388290 420.120117,148.398895 
	C419.591492,147.781906 419.062897,147.164917 418.774841,146.828705 
	C412.430023,152.284470 406.216919,157.627014 399.435089,162.496460 
M397.984070,277.877563 
	C398.353149,275.050842 398.722260,272.224152 399.229431,268.339783 
	C392.749390,271.558197 387.694458,274.068848 381.887329,276.692749 
	C378.595612,278.134460 375.303894,279.576172 371.379944,281.006470 
	C370.779205,281.422272 370.178467,281.838043 368.583008,282.942291 
	C370.577728,282.839996 371.345703,282.800598 373.031342,282.851990 
	C377.343781,282.864502 381.677979,282.610565 385.962799,282.960815 
	C390.707916,283.348663 394.389526,281.857544 397.984070,277.877563 
M149.567047,189.645950 
	C152.381973,185.773727 152.561630,181.840958 149.234909,178.290955 
	C146.158371,175.007950 141.965790,175.008423 138.722443,177.291260 
	C136.267120,179.019470 134.982513,182.410980 132.574570,185.268494 
	C132.459702,185.867493 132.344849,186.466507 131.872543,187.461456 
	C132.254303,187.910858 132.636063,188.360260 133.667755,189.081284 
	C140.386948,192.908188 147.106125,196.735107 154.125641,200.733078 
	C154.916031,199.477051 155.844437,198.001724 156.129684,197.548416 
	C153.460602,194.737823 151.206436,192.364136 149.567047,189.645950 
M446.864441,225.158875 
	C451.494354,223.797775 456.124268,222.436676 460.973663,221.011063 
	C460.570557,220.048813 460.139465,219.019730 460.061554,218.833740 
	C455.197540,219.926910 450.648865,220.949203 446.236511,221.318130 
	C448.813263,219.026367 451.255707,216.556320 454.000977,214.488251 
	C457.386017,211.938232 458.052826,209.170334 455.820648,206.033630 
	C453.165344,207.074799 450.595306,208.082550 447.251129,209.088928 
	C441.970215,210.706207 436.689331,212.323486 431.187225,214.008499 
	C431.628784,214.956848 432.079742,215.925415 432.453918,216.728989 
	C437.833496,214.757172 442.918549,212.893311 448.732483,210.993774 
	C448.760956,211.664658 449.091858,212.649261 448.771423,212.958267 
	C445.317047,216.288757 441.615082,219.373962 438.301422,222.833328 
	C436.946960,224.247314 436.372131,226.408127 435.442627,228.229187 
	C435.790497,228.432907 436.138367,228.636627 436.486237,228.840332 
	C439.680450,227.609146 442.874634,226.377960 446.864441,225.158875 
M160.525818,173.551483 
	C163.330261,173.642960 166.179077,174.071640 168.923981,173.710556 
	C170.839920,173.458527 172.613556,172.124939 174.450745,171.274460 
	C174.311188,170.769043 174.171631,170.263641 174.032074,169.758240 
	C170.686417,169.297562 167.340759,168.836884 164.101761,168.390900 
	C162.431152,159.444473 157.921799,155.937866 151.529572,159.101944 
	C148.867844,160.419464 147.149872,163.643600 144.347839,166.391403 
	C144.553986,167.597000 144.321411,169.352264 145.035126,169.921906 
	C151.155060,174.806488 157.446228,179.476517 163.884674,184.361221 
	C164.895706,182.891129 165.877701,181.463242 166.347137,180.780670 
	C163.806793,178.195160 161.709045,176.060135 160.525818,173.551483 
M333.012939,287.396179 
	C326.267822,287.389191 326.264465,287.389191 326.256653,293.852203 
	C326.250031,299.341309 326.395966,304.835632 326.197083,310.317566 
	C326.076660,313.636108 327.389587,314.666779 330.583130,314.616272 
	C338.730591,314.487427 346.895325,314.345673 355.027222,314.741455 
	C360.081146,314.987457 363.783386,313.523895 366.958374,308.701508 
	C367.450378,299.973999 367.942352,291.246521 368.455261,282.147949 
	C355.964722,284.110260 344.886230,285.850739 333.012939,287.396179 
M302.228577,245.193314 
	C300.111969,247.367981 296.413757,249.379944 296.170227,251.747314 
	C295.386932,259.361206 295.878693,267.106262 295.878693,274.992340 
	C298.737732,274.992340 300.854034,274.992340 303.600128,275.528992 
	C311.571625,275.392609 319.547211,275.372681 327.513794,275.095673 
	C344.268860,274.513123 360.571808,271.251801 376.305328,265.611053 
	C383.472534,263.041473 390.263092,259.372894 397.106262,255.965347 
	C401.470001,253.792435 399.924805,249.503250 399.454498,246.145493 
	C399.316193,245.158051 395.833344,244.082657 393.848389,244.010773 
	C386.857849,243.757568 379.848328,243.786804 372.853882,243.985809 
	C369.251251,244.088303 367.619171,242.962631 367.862671,239.152222 
	C368.106659,235.334366 367.919708,231.489029 367.922668,227.655731 
	C367.933350,213.790466 367.932129,213.713547 354.248322,213.960098 
	C347.491913,214.081848 340.741699,214.547882 333.311035,215.032547 
	C327.736664,217.913330 325.427002,222.257065 326.179596,228.682846 
	C326.771118,233.733261 326.375153,238.899323 325.434753,244.141525 
	C317.922363,244.478958 310.410004,244.816406 302.228577,245.193314 
M107.055138,161.786255 
	C100.567879,175.948700 95.805298,190.653992 92.745918,206.478546 
	C92.748718,207.050217 92.751518,207.621902 92.454361,208.913971 
	C92.334534,209.946915 92.214699,210.979858 91.691643,212.468338 
	C91.715210,213.042511 91.738777,213.616699 91.495728,214.959213 
	C91.361374,216.310425 91.227020,217.661621 90.680313,219.559143 
	C90.712807,220.436523 90.745293,221.313904 90.513885,223.003555 
	C90.366409,225.005646 90.218925,227.007721 89.688736,229.661453 
	C89.732697,231.170532 89.776649,232.679611 89.595444,235.070343 
	C89.686600,242.707932 89.777748,250.345535 89.510101,258.478455 
	C89.690186,259.649536 89.870270,260.820587 90.018661,262.874908 
	C90.267410,265.188141 90.516159,267.501343 90.450546,270.427277 
	C90.654884,271.281403 90.859215,272.135498 91.067024,273.832764 
	C91.321884,275.482056 91.576736,277.131378 91.555145,279.384369 
	C91.810051,280.373474 92.064957,281.362579 92.319870,282.351715 
	C92.613663,282.339111 92.907463,282.326538 93.201256,282.313934 
	C93.298813,281.148224 93.396362,279.982483 93.729454,277.958069 
	C96.426277,263.247406 98.072784,248.248413 102.016975,233.880157 
	C113.823135,190.871490 138.106003,155.517227 171.189377,126.043732 
	C228.208710,75.245995 293.044800,63.550568 364.164398,89.869392 
	C433.401337,115.491478 486.019592,190.973938 472.132202,276.114532 
	C462.793518,333.368103 431.821472,375.544830 380.509247,402.630310 
	C369.426727,408.480225 365.305023,406.635101 357.752472,396.950165 
	C351.994232,389.566193 345.472443,382.272308 337.894653,376.911041 
	C318.188080,362.968842 297.722015,350.099182 277.538849,336.832184 
	C271.145050,332.629333 266.217743,327.355255 262.723511,320.356964 
	C261.227783,317.361298 257.418945,313.962250 254.459564,313.764587 
	C252.221313,313.615082 248.550140,317.847473 247.454651,320.839325 
	C244.071457,330.078888 244.916977,339.420258 250.835632,347.477020 
	C254.943741,353.069183 259.872894,358.109558 264.790131,363.042725 
	C270.778503,369.050537 277.531616,374.327881 283.246704,380.568817 
	C291.789612,389.897675 289.051117,399.004791 276.992096,403.138672 
	C267.229340,406.485382 257.322968,407.355530 246.989899,406.138794 
	C216.672623,402.568939 187.776611,394.626465 161.856232,378.138275 
	C150.793976,371.101532 140.640213,362.621674 130.182877,354.654205 
	C123.317902,349.423645 115.527779,348.433716 107.088181,348.513428 
	C108.029953,355.210571 109.874069,360.726410 114.689194,365.327118 
	C126.492302,376.604584 138.341034,387.880280 149.455795,399.822693 
	C172.926270,425.040833 200.907791,443.303589 233.620529,453.502533 
	C303.361877,475.245972 369.415619,469.735535 429.359985,424.419586 
	C451.316681,407.821014 470.920654,388.889954 485.763550,365.536469 
	C519.274719,312.810577 526.741699,255.603500 512.230591,195.674103 
	C498.153839,137.538422 462.431183,94.662453 412.145905,63.883820 
	C363.511719,34.115814 310.434143,28.155281 255.534302,40.314083 
	C187.382538,55.407829 139.817184,97.096519 108.094109,158.932541 
	C107.862221,159.669327 107.630325,160.406128 107.055138,161.786255 
M181.152725,286.332916 
	C163.887558,278.066162 146.792206,277.875977 130.082855,287.742920 
	C124.608589,290.975525 123.737144,294.398682 127.268555,299.322174 
	C138.809235,315.412140 150.045837,331.763977 162.389175,347.224915 
	C184.495285,374.914459 213.408569,389.262238 249.210846,388.647247 
	C252.003998,388.599274 255.061295,388.493927 257.478210,387.335419 
	C259.123901,386.546539 260.730774,383.874054 260.731659,382.043030 
	C260.732330,380.649017 258.409912,378.581635 256.715729,378.005219 
	C253.613266,376.949707 250.149185,377.016510 246.944138,376.193665 
	C222.253189,369.854584 205.479645,353.847748 193.487289,332.092316 
	C193.176132,331.527893 193.261932,330.744598 193.060944,329.365997 
	C199.056610,333.431274 204.349579,337.168823 209.800583,340.659607 
	C213.006744,342.712860 216.360580,344.608185 219.838257,346.143646 
	C223.077850,347.574066 226.054550,346.586060 228.284378,343.768372 
	C230.517212,340.946899 229.901184,338.194580 227.954803,335.525787 
	C227.268341,334.584564 226.591339,333.628113 225.820480,332.757935 
	C215.112701,320.670288 204.525253,308.471313 193.589996,296.592651 
	C190.142700,292.847961 185.753326,289.970551 181.152725,286.332916 
M330.422424,210.566116 
	C339.254089,209.840561 348.085785,209.115021 358.126038,208.290192 
	C354.544403,204.127182 351.646637,200.145828 348.142914,196.798828 
	C336.516541,185.692566 322.999298,182.530289 308.247467,189.450775 
	C301.726868,192.509766 296.026093,197.327698 289.993744,201.407150 
	C288.690369,202.288559 287.561493,203.428009 286.433594,204.379974 
	C262.266083,184.079803 246.304565,180.873352 228.364044,192.428329 
	C216.969711,199.767090 209.457840,217.939453 212.840164,230.834274 
	C218.986282,230.834274 225.284805,230.674393 231.569519,230.899948 
	C234.838974,231.017288 236.800476,229.919601 238.265900,226.980362 
	C240.762451,221.972961 243.604813,217.137955 246.887558,211.164825 
	C250.633347,224.218491 254.047943,236.117950 257.462524,248.017426 
	C257.840454,247.952530 258.218384,247.887634 258.596344,247.822739 
	C262.453400,237.626572 266.310455,227.430389 270.541443,216.245804 
	C273.405151,222.992081 275.855682,228.764923 278.739502,235.558533 
	C281.372437,227.620239 283.698090,220.608459 286.345917,212.625290 
	C288.849915,218.571457 291.220642,223.482010 292.969849,228.604782 
	C294.161133,232.093582 296.074310,233.178558 299.598297,232.994415 
	C304.746063,232.725403 309.918396,232.954239 315.079742,232.911423 
	C324.853302,232.830368 323.830627,234.262405 323.774536,224.115173 
	C323.744659,218.709991 324.173920,213.715027 330.422424,210.566116 
M248.113312,229.325272 
	C247.273422,226.629120 246.433548,223.932953 245.229095,220.066498 
	C242.745758,225.243912 240.626434,229.019867 239.108292,233.023773 
	C237.813477,236.438736 235.725784,237.425659 232.262039,237.290009 
	C226.211777,237.053055 220.145538,237.223999 213.002304,237.223999 
	C220.050262,249.503632 227.737991,259.635254 237.985352,267.506531 
	C241.292801,270.047058 245.556564,272.361298 249.582642,272.759583 
	C262.477966,274.035217 275.468597,274.334839 288.418243,275.083771 
	C291.200653,275.244690 292.311798,274.219543 292.239777,271.375946 
	C292.096588,265.718414 292.189972,260.054840 292.189087,254.393784 
	C292.187561,244.477905 295.818268,240.675919 305.887115,240.301605 
	C310.376770,240.134674 314.883179,240.385986 319.369385,240.177063 
	C320.925354,240.104630 322.443268,239.216278 323.978546,238.700577 
	C323.843628,238.108383 323.708710,237.516190 323.573792,236.924011 
	C322.009338,236.769989 320.445709,236.494049 318.880249,236.482925 
	C311.887512,236.433228 304.880280,236.190811 297.906128,236.553299 
	C293.359863,236.789566 290.649628,235.616364 289.699799,230.850113 
	C289.210541,228.394958 287.848480,226.113739 286.530609,222.899826 
	C283.922852,230.524567 281.657379,237.148575 279.052673,244.764450 
	C275.876587,237.973206 273.238007,232.331284 270.176697,225.785431 
	C265.775177,236.958588 261.722534,247.246201 257.238617,258.628571 
	C254.065582,248.425018 251.213638,239.253983 248.113312,229.325272 
M353.362335,275.143311 
	C321.367859,278.915741 289.341522,281.241394 257.271240,276.170105 
	C240.085968,273.452606 223.328339,269.250793 208.333801,259.863403 
	C200.658508,255.058243 195.089920,249.113968 197.022415,239.068817 
	C197.126343,238.528595 196.905899,237.925964 196.701813,236.240402 
	C195.593262,237.886032 194.969437,238.571686 194.614914,239.376053 
	C191.528076,246.379501 193.212646,254.422791 199.153519,260.512360 
	C205.859726,267.386475 214.270203,271.379730 223.314301,274.019745 
	C257.143066,283.894531 291.741364,286.128143 326.745575,284.168091 
	C352.017670,282.752991 376.233734,277.280090 398.520142,264.921234 
	C403.099152,262.381958 407.267731,258.875397 411.085815,255.246780 
	C416.200958,250.385574 416.324249,244.436905 413.269043,238.269257 
	C408.839325,229.326767 401.836334,223.231781 392.581329,219.738251 
	C390.738098,219.042480 388.621552,219.070801 386.736420,218.781387 
	C392.738129,223.505234 399.131989,227.492462 404.192108,232.760773 
	C412.154755,241.051041 410.999359,249.694641 401.738098,256.465637 
	C387.567017,266.826263 371.260590,271.898285 353.362335,275.143311 
M294.668610,305.185638 
	C299.689270,299.768372 304.709930,294.351105 310.041260,288.598602 
	C292.431732,287.479248 275.532349,286.405029 257.383484,285.251373 
	C267.706543,295.040009 277.269440,304.107788 287.133362,313.461029 
	C289.767914,310.588715 291.995209,308.160400 294.668610,305.185638 
M447.259338,265.652802 
	C445.819611,265.455048 444.379883,265.257294 443.268311,265.104614 
	C443.268311,261.527618 443.268311,258.423706 443.268311,255.730331 
	C449.178711,251.235245 449.904083,258.719116 453.571350,260.229950 
	C453.307800,257.817169 453.124786,256.141571 452.842773,253.559860 
	C457.481079,255.486572 463.424622,249.475189 465.949158,257.647461 
	C465.949158,254.473251 465.949158,251.299042 465.949158,248.423264 
	C457.168030,249.085159 448.844482,249.712570 440.455963,250.344864 
	C440.916412,257.048828 441.376709,263.750519 441.827515,270.313904 
	C444.763123,270.475555 447.575989,270.630402 450.939514,270.815613 
	C448.545532,276.335114 439.363098,275.672028 441.376770,283.766968 
	C444.756470,281.822418 447.738312,280.106812 450.869629,278.305176 
	C451.451904,278.998535 451.885529,279.463013 452.261017,279.970459 
	C454.606018,283.139557 457.760529,284.396210 461.459076,283.131683 
	C465.097778,281.887634 466.955872,279.034943 467.118347,275.128754 
	C467.247162,272.031860 467.445038,268.937866 467.618500,265.726715 
	C460.744415,265.726715 454.454132,265.726715 447.259338,265.652802 
M365.431213,116.489120 
	C364.233948,108.238914 361.201538,105.111763 352.528351,102.875923 
	C349.082642,110.735611 345.663239,118.535294 342.240448,126.342705 
	C354.959930,132.651138 362.644379,129.690018 365.431213,116.489120 
M114.898331,268.127594 
	C122.600227,268.517181 130.302124,268.906769 138.483963,269.320648 
	C138.483963,267.153015 138.489456,265.014709 138.482895,262.876465 
	C138.466141,257.426086 135.661377,253.843918 130.852066,251.690857 
	C125.778465,249.419495 120.007645,250.403442 116.076622,254.222305 
	C112.099098,258.086365 111.936981,263.024628 112.449417,268.083252 
	C112.461571,268.203247 113.529762,268.216278 114.898331,268.127594 
M123.687325,246.591171 
	C125.486183,246.898651 127.287010,247.195114 129.083542,247.515640 
	C135.126358,248.593735 140.007889,246.041214 140.882172,241.337204 
	C141.759827,236.615021 138.121796,232.267273 132.272812,231.099594 
	C127.291855,230.105209 122.302681,229.151901 116.895691,228.098282 
	C116.612297,229.791473 116.334137,231.453430 116.121490,232.723969 
	C122.349800,233.923691 128.101715,234.741013 133.659332,236.266251 
	C135.503418,236.772354 136.848083,239.098206 138.421082,240.592102 
	C136.362381,241.507584 134.213959,243.352646 132.261810,243.164215 
	C126.410751,242.599442 120.636398,241.240036 114.582138,240.145599 
	C114.336700,241.667450 114.054115,243.419678 113.806435,244.955475 
	C117.014519,245.461411 119.925392,245.920456 123.687325,246.591171 
M126.372864,225.238846 
	C129.996124,226.103577 133.647125,227.771530 137.236237,227.647537 
	C142.825272,227.454483 146.676727,222.868164 146.647003,217.939560 
	C146.615829,212.767532 142.024902,207.633133 136.136078,206.184357 
	C130.378815,204.767944 124.505577,206.852921 122.165634,211.143784 
	C119.761703,215.552002 120.912834,219.922913 126.372864,225.238846 
M226.858124,110.114754 
	C228.083038,110.114754 229.307968,110.114754 230.532883,110.114754 
	C230.749908,109.488686 230.966949,108.862625 231.183990,108.236557 
	C229.297516,107.167435 227.509903,105.471420 225.504715,105.155182 
	C220.831802,104.418228 217.013016,106.175133 214.838028,110.669868 
	C211.410736,117.752579 215.539886,127.455818 223.024139,129.931641 
	C228.677139,131.801682 234.333771,128.616104 235.741531,122.828583 
	C236.484650,119.773483 235.245560,118.920441 232.209686,119.482567 
	C232.081055,120.396667 232.008743,121.196526 231.851898,121.979446 
	C230.708008,127.689911 226.567810,129.301529 222.763397,124.957779 
	C220.415009,122.276459 218.723068,118.414528 218.209625,114.869263 
	C217.373825,109.098206 220.579758,107.310463 226.858124,110.114754 
M421.627716,192.917923 
	C423.449646,193.658417 425.212158,194.692566 427.106384,195.075912 
	C430.635498,195.790192 431.107178,194.069122 429.527039,191.880905 
	C426.671234,190.994354 422.509766,189.971344 422.255463,188.339493 
	C421.863068,185.821335 423.447632,182.070709 425.472839,180.337936 
	C427.916046,178.247589 431.624786,177.026230 434.914764,176.689575 
	C439.062622,176.265152 440.655762,179.294998 439.336823,183.336472 
	C438.837372,184.866791 438.816498,186.553314 438.408081,189.313217 
	C444.520966,184.820419 444.170807,177.791595 439.048187,174.256592 
	C434.169678,170.890030 426.516693,172.193192 421.780121,177.197006 
	C417.316010,181.912994 417.077240,186.997528 421.627716,192.917923 
M464.915710,239.045349 
	C463.532990,234.782990 464.273651,229.694092 460.045013,226.525360 
	C460.427582,228.497803 460.810150,230.470245 461.241943,232.696579 
	C453.260254,234.191299 445.816010,235.585373 437.997620,237.049500 
	C438.330536,238.602066 438.734589,240.486588 438.998322,241.716599 
	C446.883820,240.227722 454.407532,238.807159 462.173309,237.340881 
	C462.689880,239.877640 463.056427,241.677734 463.422974,243.477829 
	C463.835999,243.474442 464.249023,243.471069 464.662048,243.467682 
	C464.784973,242.241531 464.907867,241.015396 464.915710,239.045349 
M429.055847,198.848282 
	C427.758789,199.237534 426.461761,199.626801 424.831512,200.116058 
	C426.339630,202.864594 427.616333,205.191406 428.893036,207.518204 
	C428.194733,201.396027 433.169983,202.694214 436.553589,200.600601 
	C436.183563,205.205048 438.412903,205.689529 441.451569,204.738800 
	C440.381012,203.289825 439.297882,201.823792 437.856567,199.872940 
	C442.240112,197.968094 446.007568,196.330994 450.214691,194.502823 
	C449.878876,193.184708 449.408508,191.338562 448.965179,189.598465 
	C445.507019,191.231964 442.390167,192.715836 439.263184,194.178085 
	C436.108154,195.653412 432.943146,197.107300 429.055847,198.848282 
M375.065857,118.757721 
	C375.927795,117.443047 376.789764,116.128380 377.825836,114.548111 
	C375.953308,113.592606 374.415710,112.808022 373.135223,112.154610 
	C368.811279,119.952545 364.742218,127.290871 360.529480,134.888290 
	C361.938385,135.677795 363.567169,136.590485 364.797668,137.279999 
	C368.305267,130.948593 371.508789,125.166077 375.065857,118.757721 
M238.152374,119.552773 
	C238.320129,121.417236 238.487900,123.281693 238.655655,125.146156 
	C239.336899,124.976875 240.018143,124.807587 240.699387,124.638298 
	C239.907150,122.607597 239.114914,120.576897 238.152374,119.552773 
M383.314789,217.447540 
	C383.437103,217.724701 383.559418,218.001862 383.681763,218.279022 
	C383.883545,218.162079 384.085358,218.045120 384.287140,217.928177 
	C384.078125,217.765488 383.869080,217.602783 383.314789,217.447540 
M406.465759,172.305283 
	C406.510986,172.246384 406.556213,172.187485 406.465759,172.305283 
z"/>
<path fill="#1077BD" opacity="1.000000" stroke="none" 
	d="
M90.764908,269.814575 
	C90.516159,267.501343 90.267410,265.188141 90.266266,262.199493 
	C90.298874,260.343750 90.083885,259.163452 89.868896,257.983124 
	C89.777748,250.345535 89.686600,242.707932 89.950554,234.433868 
	C90.227592,232.201538 90.149521,230.605682 90.071449,229.009811 
	C90.218925,227.007721 90.366409,225.005646 90.875992,222.451584 
	C91.189613,220.937347 91.141136,219.975098 91.092667,219.012833 
	C91.227020,217.661621 91.361374,216.310425 91.838905,214.463806 
	C92.153015,213.316528 92.123940,212.664658 92.094864,212.012802 
	C92.214699,210.979858 92.334534,209.946915 92.815460,208.447067 
	C93.162285,207.325912 93.148003,206.671646 93.133728,206.017395 
	C95.805298,190.653992 100.567879,175.948700 107.531189,161.348358 
	C108.200157,160.133545 108.393082,159.356628 108.586014,158.579727 
	C139.817184,97.096519 187.382538,55.407829 255.534302,40.314083 
	C310.434143,28.155281 363.511719,34.115814 412.145905,63.883820 
	C462.431183,94.662453 498.153839,137.538422 512.230591,195.674103 
	C526.741699,255.603500 519.274719,312.810577 485.763550,365.536469 
	C470.920654,388.889954 451.316681,407.821014 429.359985,424.419586 
	C369.415619,469.735535 303.361877,475.245972 233.620529,453.502533 
	C200.907791,443.303589 172.926270,425.040833 149.455795,399.822693 
	C138.341034,387.880280 126.492302,376.604584 114.689194,365.327118 
	C109.874069,360.726410 108.029953,355.210571 107.088181,348.513428 
	C115.527779,348.433716 123.317902,349.423645 130.182877,354.654205 
	C140.640213,362.621674 150.793976,371.101532 161.856232,378.138275 
	C187.776611,394.626465 216.672623,402.568939 246.989899,406.138794 
	C257.322968,407.355530 267.229340,406.485382 276.992096,403.138672 
	C289.051117,399.004791 291.789612,389.897675 283.246704,380.568817 
	C277.531616,374.327881 270.778503,369.050537 264.790131,363.042725 
	C259.872894,358.109558 254.943741,353.069183 250.835632,347.477020 
	C244.916977,339.420258 244.071457,330.078888 247.454651,320.839325 
	C248.550140,317.847473 252.221313,313.615082 254.459564,313.764587 
	C257.418945,313.962250 261.227783,317.361298 262.723511,320.356964 
	C266.217743,327.355255 271.145050,332.629333 277.538849,336.832184 
	C297.722015,350.099182 318.188080,362.968842 337.894653,376.911041 
	C345.472443,382.272308 351.994232,389.566193 357.752472,396.950165 
	C365.305023,406.635101 369.426727,408.480225 380.509247,402.630310 
	C431.821472,375.544830 462.793518,333.368103 472.132202,276.114532 
	C486.019592,190.973938 433.401337,115.491478 364.164398,89.869392 
	C293.044800,63.550568 228.208710,75.245995 171.189377,126.043732 
	C138.106003,155.517227 113.823135,190.871490 102.016975,233.880157 
	C98.072784,248.248413 96.426277,263.247406 93.401390,278.391541 
	C92.659416,278.810242 92.245499,278.795441 91.831589,278.780640 
	C91.576736,277.131378 91.321884,275.482056 91.275574,273.230743 
	C91.244392,271.690674 91.004646,270.752625 90.764908,269.814575 
z"/>
<path fill="#9A2062" opacity="1.000000" stroke="none" 
	d="
M181.473923,286.514557 
	C185.753326,289.970551 190.142700,292.847961 193.589996,296.592651 
	C204.525253,308.471313 215.112701,320.670288 225.820480,332.757935 
	C226.591339,333.628113 227.268341,334.584564 227.954803,335.525787 
	C229.901184,338.194580 230.517212,340.946899 228.284378,343.768372 
	C226.054550,346.586060 223.077850,347.574066 219.838257,346.143646 
	C216.360580,344.608185 213.006744,342.712860 209.800583,340.659607 
	C204.349579,337.168823 199.056610,333.431274 193.060944,329.365997 
	C193.261932,330.744598 193.176132,331.527893 193.487289,332.092316 
	C205.479645,353.847748 222.253189,369.854584 246.944138,376.193665 
	C250.149185,377.016510 253.613266,376.949707 256.715729,378.005219 
	C258.409912,378.581635 260.732330,380.649017 260.731659,382.043030 
	C260.730774,383.874054 259.123901,386.546539 257.478210,387.335419 
	C255.061295,388.493927 252.003998,388.599274 249.210846,388.647247 
	C213.408569,389.262238 184.495285,374.914459 162.389175,347.224915 
	C150.045837,331.763977 138.809235,315.412140 127.268555,299.322174 
	C123.737144,294.398682 124.608589,290.975525 130.082855,287.742920 
	C146.792206,277.875977 163.887558,278.066162 181.473923,286.514557 
z"/>
<path fill="#2DACE3" opacity="1.000000" stroke="none" 
	d="
M330.071533,210.741028 
	C324.173920,213.715027 323.744659,218.709991 323.774536,224.115173 
	C323.830627,234.262405 324.853302,232.830368 315.079742,232.911423 
	C309.918396,232.954239 304.746063,232.725403 299.598297,232.994415 
	C296.074310,233.178558 294.161133,232.093582 292.969849,228.604782 
	C291.220642,223.482010 288.849915,218.571457 286.345917,212.625290 
	C283.698090,220.608459 281.372437,227.620239 278.739502,235.558533 
	C275.855682,228.764923 273.405151,222.992081 270.541443,216.245804 
	C266.310455,227.430389 262.453400,237.626572 258.596344,247.822739 
	C258.218384,247.887634 257.840454,247.952530 257.462524,248.017426 
	C254.047943,236.117950 250.633347,224.218491 246.887558,211.164825 
	C243.604813,217.137955 240.762451,221.972961 238.265900,226.980362 
	C236.800476,229.919601 234.838974,231.017288 231.569519,230.899948 
	C225.284805,230.674393 218.986282,230.834274 212.840164,230.834274 
	C209.457840,217.939453 216.969711,199.767090 228.364044,192.428329 
	C246.304565,180.873352 262.266083,184.079803 286.433594,204.379974 
	C287.561493,203.428009 288.690369,202.288559 289.993744,201.407150 
	C296.026093,197.327698 301.726868,192.509766 308.247467,189.450775 
	C322.999298,182.530289 336.516541,185.692566 348.142914,196.798828 
	C351.646637,200.145828 354.544403,204.127182 358.126038,208.290192 
	C348.085785,209.115021 339.254089,209.840561 330.071533,210.741028 
z"/>
<path fill="#89C9A8" opacity="1.000000" stroke="none" 
	d="
M333.988678,214.858139 
	C340.741699,214.547882 347.491913,214.081848 354.248322,213.960098 
	C367.932129,213.713547 367.933350,213.790466 367.922668,227.655731 
	C367.919708,231.489029 368.106659,235.334366 367.862671,239.152222 
	C367.619171,242.962631 369.251251,244.088303 372.853882,243.985809 
	C379.848328,243.786804 386.857849,243.757568 393.848389,244.010773 
	C395.833344,244.082657 399.316193,245.158051 399.454498,246.145493 
	C399.924805,249.503250 401.470001,253.792435 397.106262,255.965347 
	C390.263092,259.372894 383.472534,263.041473 376.305328,265.611053 
	C360.571808,271.251801 344.268860,274.513123 327.513794,275.095673 
	C319.547211,275.372681 311.571625,275.392609 303.275757,274.792358 
	C302.933502,264.421753 302.915558,254.787796 302.897614,245.153839 
	C310.410004,244.816406 317.922363,244.478958 326.344635,244.070312 
	C333.983490,244.196487 333.995270,244.196503 334.002228,237.549133 
	C334.010162,229.985489 333.994232,222.421799 333.988678,214.858139 
z"/>
<path fill="#2FADE2" opacity="1.000000" stroke="none" 
	d="
M248.237503,229.704102 
	C251.213638,239.253983 254.065582,248.425018 257.238617,258.628571 
	C261.722534,247.246201 265.775177,236.958588 270.176697,225.785431 
	C273.238007,232.331284 275.876587,237.973206 279.052673,244.764450 
	C281.657379,237.148575 283.922852,230.524567 286.530609,222.899826 
	C287.848480,226.113739 289.210541,228.394958 289.699799,230.850113 
	C290.649628,235.616364 293.359863,236.789566 297.906128,236.553299 
	C304.880280,236.190811 311.887512,236.433228 318.880249,236.482925 
	C320.445709,236.494049 322.009338,236.769989 323.573792,236.924011 
	C323.708710,237.516190 323.843628,238.108383 323.978546,238.700577 
	C322.443268,239.216278 320.925354,240.104630 319.369385,240.177063 
	C314.883179,240.385986 310.376770,240.134674 305.887115,240.301605 
	C295.818268,240.675919 292.187561,244.477905 292.189087,254.393784 
	C292.189972,260.054840 292.096588,265.718414 292.239777,271.375946 
	C292.311798,274.219543 291.200653,275.244690 288.418243,275.083771 
	C275.468597,274.334839 262.477966,274.035217 249.582642,272.759583 
	C245.556564,272.361298 241.292801,270.047058 237.985352,267.506531 
	C227.737991,259.635254 220.050262,249.503632 213.002304,237.223999 
	C220.145538,237.223999 226.211777,237.053055 232.262039,237.290009 
	C235.725784,237.425659 237.813477,236.438736 239.108292,233.023773 
	C240.626434,229.019867 242.745758,225.243912 245.229095,220.066498 
	C246.433548,223.932953 247.273422,226.629120 248.237503,229.704102 
z"/>
<path fill="#53899B" opacity="1.000000" stroke="none" 
	d="
M353.796936,275.091248 
	C371.260590,271.898285 387.567017,266.826263 401.738098,256.465637 
	C410.999359,249.694641 412.154755,241.051041 404.192108,232.760773 
	C399.131989,227.492462 392.738129,223.505234 386.736420,218.781387 
	C388.621552,219.070801 390.738098,219.042480 392.581329,219.738251 
	C401.836334,223.231781 408.839325,229.326767 413.269043,238.269257 
	C416.324249,244.436905 416.200958,250.385574 411.085815,255.246780 
	C407.267731,258.875397 403.099152,262.381958 398.520142,264.921234 
	C376.233734,277.280090 352.017670,282.752991 326.745575,284.168091 
	C291.741364,286.128143 257.143066,283.894531 223.314301,274.019745 
	C214.270203,271.379730 205.859726,267.386475 199.153519,260.512360 
	C193.212646,254.422791 191.528076,246.379501 194.614914,239.376053 
	C194.969437,238.571686 195.593262,237.886032 196.701813,236.240402 
	C196.905899,237.925964 197.126343,238.528595 197.022415,239.068817 
	C195.089920,249.113968 200.658508,255.058243 208.333801,259.863403 
	C223.328339,269.250793 240.085968,273.452606 257.271240,276.170105 
	C289.341522,281.241394 321.367859,278.915741 353.796936,275.091248 
z"/>
<path fill="#89C9A8" opacity="1.000000" stroke="none" 
	d="
M333.807709,287.591217 
	C344.886230,285.850739 355.964722,284.110260 368.455261,282.147949 
	C367.942352,291.246521 367.450378,299.973999 366.312500,308.615479 
	C356.885376,308.349487 348.101410,307.964142 339.323975,308.078552 
	C335.103943,308.133484 333.751587,306.624084 333.938904,302.545166 
	C334.167267,297.573029 333.874878,292.576935 333.807709,287.591217 
z"/>
<path fill="#33AEE2" opacity="1.000000" stroke="none" 
	d="
M294.445557,305.458862 
	C291.995209,308.160400 289.767914,310.588715 287.133362,313.461029 
	C277.269440,304.107788 267.706543,295.040009 257.383484,285.251373 
	C275.532349,286.405029 292.431732,287.479248 310.041260,288.598602 
	C304.709930,294.351105 299.689270,299.768372 294.445557,305.458862 
z"/>
<path fill="#2B87C4" opacity="1.000000" stroke="none" 
	d="
M447.711609,265.689758 
	C454.454132,265.726715 460.744415,265.726715 467.618500,265.726715 
	C467.445038,268.937866 467.247162,272.031860 467.118347,275.128754 
	C466.955872,279.034943 465.097778,281.887634 461.459076,283.131683 
	C457.760529,284.396210 454.606018,283.139557 452.261017,279.970459 
	C451.885529,279.463013 451.451904,278.998535 450.869629,278.305176 
	C447.738312,280.106812 444.756470,281.822418 441.376770,283.766968 
	C439.363098,275.672028 448.545532,276.335114 450.939514,270.815613 
	C447.575989,270.630402 444.763123,270.475555 441.827515,270.313904 
	C441.376709,263.750519 440.916412,257.048828 440.455963,250.344864 
	C448.844482,249.712570 457.168030,249.085159 465.949158,248.423264 
	C465.949158,251.299042 465.949158,254.473251 465.949158,257.647461 
	C463.424622,249.475189 457.481079,255.486572 452.842773,253.559860 
	C453.124786,256.141571 453.307800,257.817169 453.571350,260.229950 
	C449.904083,258.719116 449.178711,251.235245 443.268311,255.730331 
	C443.268311,258.423706 443.268311,261.527618 443.268311,265.104614 
	C444.379883,265.257294 445.819611,265.455048 447.711609,265.689758 
M464.694702,276.747650 
	C464.914062,275.032257 465.133423,273.316833 465.415558,271.110626 
	C460.952179,271.110626 457.100189,271.110626 451.891693,271.110626 
	C453.052399,273.816742 453.552185,277.252502 454.879974,277.609650 
	C457.730652,278.376404 461.008392,277.555511 464.694702,276.747650 
z"/>
<path fill="#4E8698" opacity="1.000000" stroke="none" 
	d="
M333.410339,287.493713 
	C333.874878,292.576935 334.167267,297.573029 333.938904,302.545166 
	C333.751587,306.624084 335.103943,308.133484 339.323975,308.078552 
	C348.101410,307.964142 356.885376,308.349487 365.985840,308.842438 
	C363.783386,313.523895 360.081146,314.987457 355.027222,314.741455 
	C346.895325,314.345673 338.730591,314.487427 330.583130,314.616272 
	C327.389587,314.666779 326.076660,313.636108 326.197083,310.317566 
	C326.395966,304.835632 326.250031,299.341309 326.256653,293.852203 
	C326.264465,287.389191 326.267822,287.389191 333.410339,287.493713 
z"/>
<path fill="#2F89C5" opacity="1.000000" stroke="none" 
	d="
M365.420349,116.871971 
	C362.644379,129.690018 354.959930,132.651138 342.240448,126.342705 
	C345.663239,118.535294 349.082642,110.735611 352.528351,102.875923 
	C361.201538,105.111763 364.233948,108.238914 365.420349,116.871971 
M360.098267,119.276314 
	C361.798248,112.415764 360.954376,109.935936 355.618317,107.618111 
	C353.027466,113.576660 350.437622,119.532814 347.829254,125.531586 
	C353.381165,127.534439 355.989838,126.193169 360.098267,119.276314 
z"/>
<path fill="#A43772" opacity="1.000000" stroke="none" 
	d="
M114.501862,268.203400 
	C113.529762,268.216278 112.461571,268.203247 112.449417,268.083252 
	C111.936981,263.024628 112.099098,258.086365 116.076622,254.222305 
	C120.007645,250.403442 125.778465,249.419495 130.852066,251.690857 
	C135.661377,253.843918 138.466141,257.426086 138.482895,262.876465 
	C138.489456,265.014709 138.483963,267.153015 138.483963,269.320648 
	C130.302124,268.906769 122.600227,268.517181 114.501862,268.203400 
M126.510429,264.086975 
	C129.451477,264.086975 132.392517,264.086975 135.337738,264.086975 
	C135.188217,258.563141 131.391785,255.255035 125.468307,255.122543 
	C119.663284,254.992676 115.933945,257.982178 115.754211,263.451385 
	C119.007874,263.648315 122.284393,263.846619 126.510429,264.086975 
z"/>
<path fill="#A73D77" opacity="1.000000" stroke="none" 
	d="
M270.793396,109.988457 
	C273.095886,112.551949 275.398346,115.115425 277.700836,117.678902 
	C278.348694,117.486214 278.996552,117.293526 279.644409,117.100838 
	C280.400452,108.796600 280.008759,100.461540 279.216553,91.376633 
	C283.457336,92.071983 288.164032,89.719215 292.316284,93.891060 
	C289.851074,93.891060 287.385864,93.891060 284.658813,93.891060 
	C284.658813,97.763023 284.658813,101.164726 284.658813,105.167091 
	C286.670380,104.973808 288.318176,104.815475 289.965942,104.657143 
	C290.190308,104.999596 290.414642,105.342049 290.638977,105.684509 
	C289.024536,106.756996 287.410065,107.829491 285.040100,109.403885 
	C285.040100,110.284431 285.040100,112.358315 285.040100,114.812271 
	C287.685333,114.812271 290.187805,114.812271 292.690277,114.812271 
	C292.807343,115.240013 292.924408,115.667755 293.041473,116.095497 
	C291.625427,116.580124 290.150726,117.606224 288.802979,117.460228 
	C280.899109,116.604080 271.300140,121.675003 265.976318,110.486908 
	C265.944519,109.177383 265.972046,108.600143 266.196472,107.899338 
	C266.680573,107.639793 266.982300,107.587646 267.622314,107.784714 
	C268.895264,108.629562 269.844330,109.309006 270.793396,109.988457 
z"/>
<path fill="#A43772" opacity="1.000000" stroke="none" 
	d="
M123.261795,246.485352 
	C119.925392,245.920456 117.014519,245.461411 113.806435,244.955475 
	C114.054115,243.419678 114.336700,241.667450 114.582138,240.145599 
	C120.636398,241.240036 126.410751,242.599442 132.261810,243.164215 
	C134.213959,243.352646 136.362381,241.507584 138.421082,240.592102 
	C136.848083,239.098206 135.503418,236.772354 133.659332,236.266251 
	C128.101715,234.741013 122.349800,233.923691 116.121490,232.723969 
	C116.334137,231.453430 116.612297,229.791473 116.895691,228.098282 
	C122.302681,229.151901 127.291855,230.105209 132.272812,231.099594 
	C138.121796,232.267273 141.759827,236.615021 140.882172,241.337204 
	C140.007889,246.041214 135.126358,248.593735 129.083542,247.515640 
	C127.287010,247.195114 125.486183,246.898651 123.261795,246.485352 
z"/>
<path fill="#A33571" opacity="1.000000" stroke="none" 
	d="
M126.068695,225.023956 
	C120.912834,219.922913 119.761703,215.552002 122.165634,211.143784 
	C124.505577,206.852921 130.378815,204.767944 136.136078,206.184357 
	C142.024902,207.633133 146.615829,212.767532 146.647003,217.939560 
	C146.676727,222.868164 142.825272,227.454483 137.236237,227.647537 
	C133.647125,227.771530 129.996124,226.103577 126.068695,225.023956 
M141.947113,214.923218 
	C138.034637,211.014938 133.391296,209.141037 127.929482,210.588867 
	C123.711525,211.706985 122.633926,215.347549 125.492851,218.636795 
	C128.744492,222.377869 133.070663,224.044128 137.981293,223.523758 
	C143.010742,222.990784 144.181244,220.673950 141.947113,214.923218 
z"/>
<path fill="#338BC6" opacity="1.000000" stroke="none" 
	d="
M386.014252,145.963196 
	C385.113068,145.837830 384.196655,145.537476 383.313080,145.614380 
	C375.238922,146.317108 370.264557,141.062332 371.473480,133.041229 
	C372.295593,127.586418 377.040161,122.423279 382.353088,121.201332 
	C387.965454,119.910515 391.871887,122.442520 394.171295,127.212105 
	C395.011108,128.954056 394.306549,131.440552 394.306549,133.587372 
	C393.573425,133.726807 392.840271,133.866226 392.107147,134.005646 
	C391.587402,132.512878 390.797729,131.055161 390.598511,129.520767 
	C389.996765,124.886772 386.631775,122.633804 383.061707,125.516342 
	C379.929321,128.045471 377.089935,131.856796 375.906433,135.657700 
	C374.268250,140.918732 377.875580,143.379745 383.078796,141.318375 
	C383.820831,141.024399 384.556671,140.714844 385.556580,140.305588 
	C385.930420,141.637451 386.234650,142.721405 386.742310,144.131378 
	C386.945740,144.457397 387.000824,144.441284 386.608978,144.564941 
	C386.126312,145.129196 386.035522,145.569778 385.972961,146.014465 
	C386.001221,146.018570 386.014252,145.963196 386.014252,145.963196 
z"/>
<path fill="#A63B75" opacity="1.000000" stroke="none" 
	d="
M226.538025,109.901062 
	C220.579758,107.310463 217.373825,109.098206 218.209625,114.869263 
	C218.723068,118.414528 220.415009,122.276459 222.763397,124.957779 
	C226.567810,129.301529 230.708008,127.689911 231.851898,121.979446 
	C232.008743,121.196526 232.081055,120.396667 232.209686,119.482567 
	C235.245560,118.920441 236.484650,119.773483 235.741531,122.828583 
	C234.333771,128.616104 228.677139,131.801682 223.024139,129.931641 
	C215.539886,127.455818 211.410736,117.752579 214.838028,110.669868 
	C217.013016,106.175133 220.831802,104.418228 225.504715,105.155182 
	C227.509903,105.471420 229.297516,107.167435 231.183990,108.236557 
	C230.966949,108.862625 230.749908,109.488686 230.532883,110.114754 
	C229.307968,110.114754 228.083038,110.114754 226.538025,109.901062 
z"/>
<path fill="#2885C3" opacity="1.000000" stroke="none" 
	d="
M421.346375,192.670837 
	C417.077240,186.997528 417.316010,181.912994 421.780121,177.197006 
	C426.516693,172.193192 434.169678,170.890030 439.048187,174.256592 
	C444.170807,177.791595 444.520966,184.820419 438.408081,189.313217 
	C438.816498,186.553314 438.837372,184.866791 439.336823,183.336472 
	C440.655762,179.294998 439.062622,176.265152 434.914764,176.689575 
	C431.624786,177.026230 427.916046,178.247589 425.472839,180.337936 
	C423.447632,182.070709 421.863068,185.821335 422.255463,188.339493 
	C422.509766,189.971344 426.671234,190.994354 429.527039,191.880905 
	C431.107178,194.069122 430.635498,195.790192 427.106384,195.075912 
	C425.212158,194.692566 423.449646,193.658417 421.346375,192.670837 
z"/>
<path fill="#2F89C5" opacity="1.000000" stroke="none" 
	d="
M325.042114,116.981491 
	C325.389984,118.366493 325.737854,119.751495 326.085724,121.136490 
	C326.633118,121.239174 327.180511,121.341858 327.727905,121.444542 
	C330.263428,113.552345 332.798950,105.660149 335.370911,97.654533 
	C341.921326,98.106781 346.081299,99.976837 347.076080,103.255898 
	C344.702606,102.546448 342.419189,101.863907 339.405945,100.963219 
	C338.266479,104.655830 337.228333,108.020111 336.105042,111.660255 
	C337.970154,112.309540 339.328369,112.782379 340.686615,113.255211 
	C340.750092,113.702721 340.813568,114.150223 340.877014,114.597733 
	C339.093567,114.867622 337.310120,115.137512 334.721832,115.529198 
	C334.386597,117.977257 334.000092,120.799843 333.560120,124.012741 
	C330.712280,123.086067 327.694855,122.104218 324.349426,120.581528 
	C324.361664,119.020958 324.701874,118.001221 325.042114,116.981491 
z"/>
<path fill="#498294" opacity="1.000000" stroke="none" 
	d="
M333.649841,214.945343 
	C333.994232,222.421799 334.010162,229.985489 334.002228,237.549133 
	C333.995270,244.196503 333.983490,244.196487 326.836182,244.006561 
	C326.375153,238.899323 326.771118,233.733261 326.179596,228.682846 
	C325.427002,222.257065 327.736664,217.913330 333.649841,214.945343 
z"/>
<path fill="#4D8596" opacity="1.000000" stroke="none" 
	d="
M302.563110,245.173569 
	C302.915558,254.787796 302.933502,264.421753 302.960876,274.524048 
	C300.854034,274.992340 298.737732,274.992340 295.878693,274.992340 
	C295.878693,267.106262 295.386932,259.361206 296.170227,251.747314 
	C296.413757,249.379944 300.111969,247.367981 302.563110,245.173569 
z"/>
<path fill="#A43772" opacity="1.000000" stroke="none" 
	d="
M171.951462,149.030869 
	C170.121872,146.516769 168.292282,144.002670 166.462692,141.488571 
	C165.996033,141.742737 165.529373,141.996918 165.062729,142.251083 
	C166.503860,140.991653 167.944992,139.732224 169.191620,138.642776 
	C173.793915,141.457306 178.164246,144.129974 182.534576,146.802643 
	C182.851868,146.525436 183.169159,146.248230 183.486450,145.971008 
	C182.610504,143.579514 181.734558,141.188019 181.241257,138.407181 
	C182.161392,138.053116 182.698868,138.088379 183.319183,138.320175 
	C183.558853,138.769119 183.777267,138.945206 184.029236,139.024200 
	C184.001190,139.003448 183.972260,138.939941 183.931793,139.334564 
	C186.348557,144.514481 188.805786,149.299805 191.263016,154.085114 
	C189.002411,153.945801 186.671539,154.097504 184.503723,153.573990 
	C182.807053,153.164246 181.312485,151.917633 179.332611,150.674866 
	C176.908981,149.067093 174.880829,147.827332 173.048416,146.707199 
	C172.689316,147.467865 172.320389,148.249374 171.951462,149.030869 
z"/>
<path fill="#A43772" opacity="1.000000" stroke="none" 
	d="
M196.991089,146.803299 
	C200.300766,146.536270 199.849274,144.723450 198.561066,142.754211 
	C194.678207,136.818680 190.732010,130.924576 186.477310,124.512131 
	C187.921097,123.719215 189.698685,122.742981 190.969437,122.045097 
	C193.304138,125.807365 195.551483,129.428879 198.113312,133.557129 
	C199.794724,132.047592 200.964615,130.997284 202.134491,129.946976 
	C202.548035,130.113312 202.961563,130.279648 203.375092,130.445984 
	C202.629700,132.168762 201.884308,133.891525 201.138916,135.614304 
	C200.635513,135.625854 200.132095,135.637405 199.628693,135.648956 
	C201.294830,138.060562 202.960968,140.472183 204.895508,143.272293 
	C202.785568,144.754623 200.192322,146.576523 197.291565,148.289001 
	C196.986404,147.720825 196.988739,147.262070 196.991089,146.803299 
z"/>
<path fill="#2B87C4" opacity="1.000000" stroke="none" 
	d="
M307.092834,102.000549 
	C307.415710,99.097107 307.738586,96.193657 308.084930,93.079071 
	C309.975006,92.925018 311.691864,92.785088 313.501282,92.637604 
	C314.244904,98.298897 314.938477,103.578926 315.632019,108.858955 
	C316.031250,108.925430 316.430481,108.991905 316.829712,109.058372 
	C318.313690,106.385872 319.797668,103.713371 321.612000,101.283936 
	C322.017700,102.174614 322.093048,102.822220 322.112671,103.795670 
	C320.011536,109.349205 317.966125,114.576897 315.920715,119.804581 
	C314.560669,118.219048 312.560730,116.837250 311.977234,115.004486 
	C310.852722,111.472443 310.528961,107.685463 309.904816,103.395401 
	C309.660126,102.687653 309.383759,102.588669 309.107422,102.489685 
	C308.964905,102.649376 308.822388,102.809074 308.286987,102.852844 
	C307.627014,102.491470 307.359924,102.246010 307.092834,102.000549 
z"/>
<path fill="#2B87C4" opacity="1.000000" stroke="none" 
	d="
M464.973267,239.417297 
	C464.907867,241.015396 464.784973,242.241531 464.662048,243.467682 
	C464.249023,243.471069 463.835999,243.474442 463.422974,243.477829 
	C463.056427,241.677734 462.689880,239.877640 462.173309,237.340881 
	C454.407532,238.807159 446.883820,240.227722 438.998322,241.716599 
	C438.734589,240.486588 438.330536,238.602066 437.997620,237.049500 
	C445.816010,235.585373 453.260254,234.191299 461.241943,232.696579 
	C460.810150,230.470245 460.427582,228.497803 460.045013,226.525360 
	C464.273651,229.694092 463.532990,234.782990 464.973267,239.417297 
z"/>
<path fill="#2382C2" opacity="1.000000" stroke="none" 
	d="
M429.419189,198.709442 
	C432.943146,197.107300 436.108154,195.653412 439.263184,194.178085 
	C442.390167,192.715836 445.507019,191.231964 448.965179,189.598465 
	C449.408508,191.338562 449.878876,193.184708 450.214691,194.502823 
	C446.007568,196.330994 442.240112,197.968094 437.856567,199.872940 
	C439.297882,201.823792 440.381012,203.289825 441.451569,204.738800 
	C438.412903,205.689529 436.183563,205.205048 436.553589,200.600601 
	C433.169983,202.694214 428.194733,201.396027 428.893036,207.518204 
	C427.616333,205.191406 426.339630,202.864594 424.831512,200.116058 
	C426.461761,199.626801 427.758789,199.237534 429.419189,198.709442 
z"/>
<path fill="#A94179" opacity="1.000000" stroke="none" 
	d="
M145.002762,166.000763 
	C147.149872,163.643600 148.867844,160.419464 151.529572,159.101944 
	C157.921799,155.937866 162.431152,159.444473 164.101761,168.390900 
	C167.340759,168.836884 170.686417,169.297562 174.032074,169.758240 
	C174.171631,170.263641 174.311188,170.769043 174.450745,171.274460 
	C172.613556,172.124939 170.839920,173.458527 168.923981,173.710556 
	C166.179077,174.071640 163.330261,173.642960 159.837616,173.757965 
	C158.777924,173.723557 158.406418,173.482666 158.236298,172.907898 
	C161.257004,168.240814 160.830582,165.440613 156.975891,162.975037 
	C153.178116,160.545837 150.876663,161.304733 147.408508,166.014191 
	C146.377472,166.008148 145.690109,166.004456 145.002762,166.000763 
z"/>
<path fill="#1E7FC1" opacity="1.000000" stroke="none" 
	d="
M448.025269,209.090302 
	C450.595306,208.082550 453.165344,207.074799 455.820648,206.033630 
	C458.052826,209.170334 457.386017,211.938232 454.000977,214.488251 
	C451.255707,216.556320 448.813263,219.026367 445.892914,221.674347 
	C445.722504,223.069290 445.895660,224.108032 446.068848,225.146759 
	C442.874634,226.377960 439.680450,227.609146 436.486237,228.840332 
	C436.138367,228.636627 435.790497,228.432907 435.442627,228.229187 
	C436.372131,226.408127 436.946960,224.247314 438.301422,222.833328 
	C441.615082,219.373962 445.317047,216.288757 448.771423,212.958267 
	C449.091858,212.649261 448.760956,211.664658 448.349121,210.688477 
	C447.985596,209.952225 448.005432,209.521271 448.025269,209.090302 
M451.235870,210.477600 
	C451.235870,210.477600 451.532196,210.601715 451.532196,210.601715 
	C451.532196,210.601715 451.460419,210.318710 451.235870,210.477600 
z"/>
<path fill="#338BC6" opacity="1.000000" stroke="none" 
	d="
M374.889099,119.070641 
	C371.508789,125.166077 368.305267,130.948593 364.797668,137.279999 
	C363.567169,136.590485 361.938385,135.677795 360.529480,134.888290 
	C364.742218,127.290871 368.811279,119.952545 373.135223,112.154610 
	C374.415710,112.808022 375.953308,113.592606 377.825836,114.548111 
	C376.789764,116.128380 375.927795,117.443047 374.889099,119.070641 
z"/>
<path fill="#A2326F" opacity="1.000000" stroke="none" 
	d="
M239.800812,105.664810 
	C238.823120,103.762856 237.845413,101.860909 236.899170,100.020172 
	C241.067368,97.054359 243.289703,98.278137 245.349991,101.865700 
	C248.816437,107.901764 252.674850,113.712700 256.675293,119.853851 
	C256.982178,120.089371 256.953003,119.983543 256.953003,119.983543 
	C255.410370,120.767616 253.867737,121.551689 252.690109,122.150238 
	C250.126480,119.118332 247.923981,116.513535 245.368347,113.577660 
	C245.003571,112.815208 244.991943,112.383827 245.037109,111.586380 
	C243.691650,108.575394 242.289413,105.930473 240.270828,102.123039 
	C239.974365,104.357010 239.887604,105.010910 239.800812,105.664810 
z"/>
<path fill="#A33571" opacity="1.000000" stroke="none" 
	d="
M257.346100,119.930679 
	C256.953003,119.983543 256.982178,120.089371 256.966675,120.116104 
	C257.581818,118.812691 258.878357,117.404434 258.733032,116.165321 
	C257.903381,109.093018 256.730408,102.060982 255.582199,94.402649 
	C259.425751,94.084000 263.446655,93.750648 267.570984,93.967743 
	C267.326447,94.742706 266.978424,94.967216 266.223877,95.170425 
	C264.229218,95.266640 262.641144,95.384163 260.615784,95.534042 
	C261.147522,99.986671 261.614716,103.898994 262.075317,108.129913 
	C262.378815,108.965500 262.688904,109.482491 262.998962,109.999489 
	C263.295074,113.037628 263.591156,116.075760 263.961731,119.877823 
	C262.123169,119.877823 259.931183,119.877823 257.346100,119.930679 
z"/>
<path fill="#A63974" opacity="1.000000" stroke="none" 
	d="
M175.280228,165.984848 
	C169.646805,160.858047 164.013367,155.731247 157.984558,150.244614 
	C158.885132,149.234406 160.146866,147.819061 161.341568,146.478912 
	C167.179016,151.981064 172.821732,157.299652 178.742020,163.199646 
	C179.067215,164.279526 179.114838,164.778015 179.162445,165.276489 
	C178.679596,165.820984 178.196747,166.365494 177.223236,166.909729 
	C176.248459,166.601273 175.764343,166.293060 175.280228,165.984848 
z"/>
<path fill="#A2326F" opacity="1.000000" stroke="none" 
	d="
M132.229980,187.065506 
	C132.344849,186.466507 132.459702,185.867493 133.226440,185.153183 
	C134.580505,185.026840 135.282700,185.015793 136.282196,185.176025 
	C138.142334,186.261261 139.624222,187.380371 141.288513,188.037445 
	C143.384766,188.865036 145.630035,189.315125 148.095749,189.954239 
	C148.571075,189.983734 148.761658,189.987091 148.952255,189.990448 
	C151.206436,192.364136 153.460602,194.737823 156.129684,197.548416 
	C155.844437,198.001724 154.916031,199.477051 154.125641,200.733078 
	C147.106125,196.735107 140.386948,192.908188 133.328796,188.692108 
	C132.736557,187.890442 132.483276,187.477982 132.229980,187.065506 
z"/>
<path fill="#A33571" opacity="1.000000" stroke="none" 
	d="
M158.034912,173.241776 
	C158.406418,173.482666 158.777924,173.723557 159.380371,173.944794 
	C161.709045,176.060135 163.806793,178.195160 166.347137,180.780670 
	C165.877701,181.463242 164.895706,182.891129 163.884674,184.361221 
	C157.446228,179.476517 151.155060,174.806488 145.035126,169.921906 
	C144.321411,169.352264 144.553986,167.597000 144.675293,166.196075 
	C145.690109,166.004456 146.377472,166.008148 147.632248,166.277802 
	C151.478088,168.776428 154.756500,171.009109 158.034912,173.241776 
z"/>
<path fill="#2B87C4" opacity="1.000000" stroke="none" 
	d="
M401.920837,136.852951 
	C403.747406,136.550095 405.573944,136.247223 407.400513,135.944366 
	C407.456573,137.841522 408.153015,140.025192 407.455170,141.585098 
	C404.769775,147.587906 401.638153,153.391083 398.145020,159.611359 
	C397.005127,160.011246 396.393188,160.068481 395.781219,160.125717 
	C395.486603,160.058151 395.239441,159.910950 394.964722,159.071075 
	C394.881927,157.893631 394.874146,157.329239 394.866333,156.764847 
	C395.675842,154.068253 396.485321,151.371658 397.257233,148.126862 
	C397.532104,147.348801 397.844574,147.118942 398.504456,146.912964 
	C401.049164,144.712006 403.818298,142.711243 401.996887,138.568207 
	C401.972046,137.767502 401.946442,137.310226 401.920837,136.852951 
z"/>
<path fill="#4D8596" opacity="1.000000" stroke="none" 
	d="
M372.012177,281.017914 
	C375.303894,279.576172 378.595612,278.134460 382.740417,276.780945 
	C388.151123,277.298645 392.708740,277.728119 397.266388,278.157593 
	C394.389526,281.857544 390.707916,283.348663 385.962799,282.960815 
	C381.677979,282.610565 377.343781,282.864502 372.566895,282.515930 
	C372.072327,281.792542 372.042236,281.405212 372.012177,281.017914 
z"/>
<path fill="#A2326F" opacity="1.000000" stroke="none" 
	d="
M196.763840,146.506424 
	C196.988739,147.262070 196.986404,147.720825 196.983231,148.408966 
	C196.171555,149.396790 195.360718,150.155258 194.144089,150.763596 
	C190.482956,146.722275 187.227600,142.831116 183.972260,138.939941 
	C183.972260,138.939941 184.001190,139.003448 183.897186,138.864838 
	C183.640427,138.494995 183.454819,138.294144 183.236359,138.123657 
	C182.698868,138.088379 182.161392,138.053116 181.219482,138.014572 
	C180.238922,135.390915 179.662781,132.770508 179.733002,130.051910 
	C181.038391,129.980957 181.697388,130.008209 182.356400,130.035446 
	C187.083130,135.426819 191.809875,140.818176 196.763840,146.506424 
z"/>
<path fill="#2B87C4" opacity="1.000000" stroke="none" 
	d="
M420.778412,150.851746 
	C415.298065,155.845078 409.817688,160.838394 404.046234,166.096954 
	C404.593567,166.896896 405.285889,167.908676 405.978180,168.920471 
	C405.681152,169.216309 405.384094,169.512131 405.087067,169.807968 
	C403.440155,168.154358 401.793243,166.500748 400.051025,164.228027 
	C399.971710,163.395813 399.987732,163.182678 400.003784,162.969543 
	C406.216919,157.627014 412.430023,152.284470 418.774841,146.828705 
	C419.062897,147.164917 419.591492,147.781906 419.883972,148.727051 
	C419.299255,149.471558 418.950745,149.887894 418.602203,150.304230 
	C419.327606,150.486740 420.053009,150.669235 420.778412,150.851746 
z"/>
<path fill="#2885C3" opacity="1.000000" stroke="none" 
	d="
M322.168396,103.469833 
	C322.093048,102.822220 322.017700,102.174614 321.871033,101.041656 
	C322.965302,98.105011 322.893860,94.381599 327.651062,95.745392 
	C328.104706,96.721596 328.179718,97.186813 328.254761,97.652023 
	C328.382233,97.956802 328.383087,98.261940 327.927277,98.900757 
	C327.656616,99.797234 327.716034,100.360390 327.775421,100.923546 
	C327.628845,102.061424 327.482269,103.199310 326.971313,104.782074 
	C326.665375,105.793297 326.723877,106.359634 326.782349,106.925972 
	C326.288818,110.028687 325.795288,113.131409 325.171936,116.607811 
	C324.701874,118.001221 324.361664,119.020958 324.043518,120.386810 
	C323.102081,120.713593 322.138611,120.694244 320.677216,120.329315 
	C320.842346,114.479095 321.505371,108.974464 322.168396,103.469833 
z"/>
<path fill="#A94179" opacity="1.000000" stroke="none" 
	d="
M135.984909,185.004745 
	C135.282700,185.015793 134.580505,185.026840 133.527603,185.050079 
	C134.982513,182.410980 136.267120,179.019470 138.722443,177.291260 
	C141.965790,175.008423 146.158371,175.007950 149.234909,178.290955 
	C152.561630,181.840958 152.381973,185.773727 149.259644,189.818207 
	C148.761658,189.987091 148.571075,189.983734 148.161255,189.582703 
	C149.479950,184.751923 148.149033,181.578873 143.952988,180.216888 
	C139.578064,178.796860 136.884613,180.485245 135.984909,185.004745 
z"/>
<path fill="#529DCF" opacity="1.000000" stroke="none" 
	d="
M401.570679,136.903564 
	C401.946442,137.310226 401.972046,137.767502 401.795593,138.837677 
	C399.707977,140.742447 397.822418,142.034286 395.683685,143.499573 
	C396.650818,144.824951 397.403931,145.857010 398.157013,146.889099 
	C397.844574,147.118942 397.532104,147.348801 397.079559,147.837570 
	C393.480896,144.444931 390.614288,146.794739 387.540741,148.841141 
	C386.502106,149.532639 384.937408,149.434021 383.613129,149.696487 
	C384.357483,148.670822 385.101807,147.645142 385.930206,146.291321 
	C386.014252,145.963196 386.001221,146.018570 386.362335,145.936340 
	C386.815918,145.383179 386.908356,144.912231 387.000824,144.441284 
	C387.000824,144.441284 386.945740,144.457397 386.917358,144.456146 
	C390.153320,142.896057 393.445923,141.392883 396.669891,139.754578 
	C398.252472,138.950394 399.707642,137.895584 401.570679,136.903564 
z"/>
<path fill="#93CCB0" opacity="1.000000" stroke="none" 
	d="
M397.625244,278.017578 
	C392.708740,277.728119 388.151123,277.298645 383.116486,276.724304 
	C387.694458,274.068848 392.749390,271.558197 399.229431,268.339783 
	C398.722260,272.224152 398.353149,275.050842 397.625244,278.017578 
z"/>
<path fill="#A63974" opacity="1.000000" stroke="none" 
	d="
M266.630432,95.191727 
	C266.978424,94.967216 267.326447,94.742706 267.840271,94.252655 
	C273.610138,95.795570 275.647339,100.617767 272.859528,105.505234 
	C272.147644,106.753265 271.390045,107.975243 270.723450,109.598816 
	C269.844330,109.309006 268.895264,108.629562 267.862091,107.502930 
	C271.177429,102.735245 269.805450,98.876282 266.630432,95.191727 
z"/>
<path fill="#B65E8E" opacity="1.000000" stroke="none" 
	d="
M172.032959,149.359253 
	C172.320389,148.249374 172.689316,147.467865 173.048416,146.707199 
	C174.880829,147.827332 176.908981,149.067093 178.987762,150.577118 
	C178.563751,150.962524 178.089111,151.077682 176.886475,151.369492 
	C179.477798,154.183807 181.814987,156.722122 184.589172,159.735046 
	C183.771255,160.321182 182.693436,161.093597 181.312683,161.924500 
	C181.009735,161.982971 181.011902,162.041107 181.011902,162.041107 
	C178.046082,157.923279 175.080261,153.805450 172.032959,149.359253 
z"/>
<path fill="#E9CDDC" opacity="1.000000" stroke="none" 
	d="
M183.931793,139.334564 
	C187.227600,142.831116 190.482956,146.722275 193.861588,150.946503 
	C193.280228,152.187210 192.575562,153.094879 191.566956,154.043823 
	C188.805786,149.299805 186.348557,144.514481 183.931793,139.334564 
z"/>
<path fill="#D0E4F2" opacity="1.000000" stroke="none" 
	d="
M322.112671,103.795670 
	C321.505371,108.974464 320.842346,114.479095 320.313629,120.346291 
	C319.070007,120.591843 317.692078,120.474831 316.117432,120.081207 
	C317.966125,114.576897 320.011536,109.349205 322.112671,103.795670 
z"/>
<path fill="#4B99CD" opacity="1.000000" stroke="none" 
	d="
M447.638214,209.089615 
	C448.005432,209.521271 447.985596,209.952225 447.984680,210.706329 
	C442.918549,212.893311 437.833496,214.757172 432.453918,216.728989 
	C432.079742,215.925415 431.628784,214.956848 431.187225,214.008499 
	C436.689331,212.323486 441.970215,210.706207 447.638214,209.089615 
z"/>
<path fill="#3A8FC9" opacity="1.000000" stroke="none" 
	d="
M446.466644,225.152832 
	C445.895660,224.108032 445.722504,223.069290 445.824768,222.001022 
	C450.648865,220.949203 455.197540,219.926910 460.061554,218.833740 
	C460.139465,219.019730 460.570557,220.048813 460.973663,221.011063 
	C456.124268,222.436676 451.494354,223.797775 446.466644,225.152832 
z"/>
<path fill="#4294CB" opacity="1.000000" stroke="none" 
	d="
M306.974548,102.379654 
	C307.359924,102.246010 307.627014,102.491470 307.997559,102.991882 
	C307.809174,107.932304 307.517273,112.617767 307.206421,117.607651 
	C306.110992,117.607651 304.950012,117.607651 303.999420,117.607651 
	C304.992065,112.448151 305.924194,107.603455 306.974548,102.379654 
z"/>
<path fill="#F3E3EC" opacity="1.000000" stroke="none" 
	d="
M239.803436,105.698669 
	C239.887604,105.010910 239.974365,104.357010 240.270828,102.123039 
	C242.289413,105.930473 243.691650,108.575394 244.666122,111.621323 
	C242.812378,112.168129 241.386398,112.313911 239.960434,112.459694 
	C239.960434,112.459694 240.032654,112.475197 239.999115,112.013672 
	C239.990814,109.866135 240.016068,108.180115 240.041321,106.494095 
	C239.889053,106.263611 239.810623,106.009758 239.803436,105.698669 
z"/>
<path fill="#A94179" opacity="1.000000" stroke="none" 
	d="
M239.766663,112.651352 
	C241.386398,112.313911 242.812378,112.168129 244.609329,111.987396 
	C244.991943,112.383827 245.003571,112.815208 244.998077,113.569664 
	C243.603897,114.345238 242.226852,114.797737 240.411072,114.819595 
	C239.909637,114.041122 239.846924,113.693298 239.784210,113.345474 
	C239.713760,113.177994 239.643326,113.010506 239.766663,112.651352 
z"/>
<path fill="#A2326F" opacity="1.000000" stroke="none" 
	d="
M239.583298,106.250504 
	C240.016068,108.180115 239.990814,109.866135 239.997665,112.050583 
	C237.410812,111.455231 237.192368,109.875191 239.583298,106.250504 
z"/>
<path fill="#529DCF" opacity="1.000000" stroke="none" 
	d="
M399.719421,162.733002 
	C399.987732,163.182678 399.971710,163.395813 399.905518,163.925781 
	C398.587158,163.069702 397.318970,161.896805 395.916016,160.424805 
	C396.393188,160.068481 397.005127,160.011246 397.919830,159.908203 
	C398.626740,160.740417 399.030914,161.618439 399.719421,162.733002 
z"/>
<path fill="#5BA2D2" opacity="1.000000" stroke="none" 
	d="
M89.880096,229.335632 
	C90.149521,230.605682 90.227592,232.201538 90.063133,233.993042 
	C89.776649,232.679611 89.732697,231.170532 89.880096,229.335632 
z"/>
<path fill="#5BA2D2" opacity="1.000000" stroke="none" 
	d="
M91.693367,279.082520 
	C92.245499,278.795441 92.659416,278.810242 93.283623,278.820862 
	C93.396362,279.982483 93.298813,281.148224 93.201256,282.313934 
	C92.907463,282.326538 92.613663,282.339111 92.319870,282.351715 
	C92.064957,281.362579 91.810051,280.373474 91.693367,279.082520 
z"/>
<path fill="#5BA2D2" opacity="1.000000" stroke="none" 
	d="
M89.689499,258.230774 
	C90.083885,259.163452 90.298874,260.343750 90.282104,261.757874 
	C89.870270,260.820587 89.690186,259.649536 89.689499,258.230774 
z"/>
<path fill="#A63974" opacity="1.000000" stroke="none" 
	d="
M263.366608,109.988998 
	C262.688904,109.482491 262.378815,108.965500 262.457306,108.230148 
	C263.897095,108.015503 264.948334,108.019211 265.999573,108.022911 
	C265.972046,108.600143 265.944519,109.177383 265.867737,110.187195 
	C265.123749,110.406029 264.428986,110.192268 263.366608,109.988998 
z"/>
<path fill="#A2326F" opacity="1.000000" stroke="none" 
	d="
M238.237518,119.049484 
	C239.114914,120.576897 239.907150,122.607597 240.699387,124.638298 
	C240.018143,124.807587 239.336899,124.976875 238.655655,125.146156 
	C238.487900,123.281693 238.320129,121.417236 238.237518,119.049484 
z"/>
<path fill="#5BA2D2" opacity="1.000000" stroke="none" 
	d="
M90.607727,270.120911 
	C91.004646,270.752625 91.244392,271.690674 91.273834,272.809174 
	C90.859215,272.135498 90.654884,271.281403 90.607727,270.120911 
z"/>
<path fill="#5BA2D2" opacity="1.000000" stroke="none" 
	d="
M90.886490,219.285980 
	C91.141136,219.975098 91.189613,220.937347 91.007935,222.045441 
	C90.745293,221.313904 90.712807,220.436523 90.886490,219.285980 
z"/>
<path fill="#A43772" opacity="1.000000" stroke="none" 
	d="
M182.394333,129.750519 
	C181.697388,130.008209 181.038391,129.980957 180.050018,129.922791 
	C180.624512,129.749756 181.528397,129.607666 182.394333,129.750519 
z"/>
<path fill="#8BAEBA" opacity="1.000000" stroke="none" 
	d="
M371.696045,281.012207 
	C372.042236,281.405212 372.072327,281.792542 372.108032,282.470520 
	C371.345703,282.800598 370.577728,282.839996 368.583008,282.942291 
	C370.178467,281.838043 370.779205,281.422272 371.696045,281.012207 
z"/>
<path fill="#B65E8E" opacity="1.000000" stroke="none" 
	d="
M175.288559,166.269409 
	C175.764343,166.293060 176.248459,166.601273 176.986679,167.050323 
	C176.810013,167.525497 176.379242,167.859802 175.948471,168.194107 
	C175.731277,167.647385 175.514084,167.100677 175.288559,166.269409 
z"/>
<path fill="#53899B" opacity="1.000000" stroke="none" 
	d="
M383.487427,217.443817 
	C383.869080,217.602783 384.078125,217.765488 384.287140,217.928177 
	C384.085358,218.045120 383.883545,218.162079 383.681763,218.279022 
	C383.559418,218.001862 383.437103,217.724701 383.487427,217.443817 
z"/>
<path fill="#2F89C5" opacity="1.000000" stroke="none" 
	d="
M328.501282,97.498154 
	C328.179718,97.186813 328.104706,96.721596 328.001404,95.906158 
	C328.406616,95.618111 328.840027,95.680298 329.273468,95.742485 
	C329.098267,96.276421 328.923035,96.810349 328.501282,97.498154 
z"/>
<path fill="#2F89C5" opacity="1.000000" stroke="none" 
	d="
M327.932617,100.775665 
	C327.716034,100.360390 327.656616,99.797234 327.821106,99.108734 
	C328.059937,99.531525 328.074890,100.079659 327.932617,100.775665 
z"/>
<path fill="#5BA2D2" opacity="1.000000" stroke="none" 
	d="
M91.893257,212.240570 
	C92.123940,212.664658 92.153015,213.316528 91.972214,214.079620 
	C91.738777,213.616699 91.715210,213.042511 91.893257,212.240570 
z"/>
<path fill="#2F89C5" opacity="1.000000" stroke="none" 
	d="
M326.938141,106.774582 
	C326.723877,106.359634 326.665375,105.793297 326.833405,105.102280 
	C327.071228,105.526138 327.082550,106.074661 326.938141,106.774582 
z"/>
<path fill="#5BA2D2" opacity="1.000000" stroke="none" 
	d="
M92.939819,206.247971 
	C93.148003,206.671646 93.162285,207.325912 92.965439,208.086868 
	C92.751518,207.621902 92.748718,207.050217 92.939819,206.247971 
z"/>
<path fill="#A94179" opacity="1.000000" stroke="none" 
	d="
M132.051270,187.263489 
	C132.483276,187.477982 132.736557,187.890442 133.003845,188.556274 
	C132.636063,188.360260 132.254303,187.910858 132.051270,187.263489 
z"/>
<path fill="#B65E8E" opacity="1.000000" stroke="none" 
	d="
M179.443512,165.156464 
	C179.114838,164.778015 179.067215,164.279526 179.002594,163.405975 
	C179.228348,163.011383 179.471085,162.991852 180.053802,162.990814 
	C180.393753,163.009277 180.348984,162.984558 180.348984,162.984558 
	C180.140839,163.668518 179.932709,164.352463 179.443512,165.156464 
z"/>
<path fill="#5BA2D2" opacity="1.000000" stroke="none" 
	d="
M108.340057,158.756134 
	C108.393082,159.356628 108.200157,160.133545 107.702835,161.026672 
	C107.630325,160.406128 107.862221,159.669327 108.340057,158.756134 
z"/>
<path fill="#529DCF" opacity="1.000000" stroke="none" 
	d="
M394.596558,156.855774 
	C394.874146,157.329239 394.881927,157.893631 394.857178,158.880798 
	C394.658661,158.517960 394.492706,157.732315 394.596558,156.855774 
z"/>
<path fill="#2885C3" opacity="1.000000" stroke="none" 
	d="
M420.891937,150.521545 
	C420.053009,150.669235 419.327606,150.486740 418.602203,150.304230 
	C418.950745,149.887894 419.299255,149.471558 420.003632,149.020966 
	C420.574799,149.388290 420.790131,149.789825 420.891937,150.521545 
z"/>
<path fill="#2B87C4" opacity="1.000000" stroke="none" 
	d="
M406.533569,172.216934 
	C406.556213,172.187485 406.510986,172.246384 406.533569,172.216934 
z"/>
<path fill="#A2326F" opacity="1.000000" stroke="none" 
	d="
M239.279785,113.469688 
	C239.846924,113.693298 239.909637,114.041122 240.028259,114.918716 
	C239.647903,114.830292 239.211639,114.212097 239.279785,113.469688 
z"/>
<path fill="#4294CB" opacity="1.000000" stroke="none" 
	d="
M309.338715,102.629044 
	C309.383759,102.588669 309.660126,102.687653 309.932983,102.979004 
	C309.809662,103.037041 309.689819,102.902718 309.338715,102.629044 
z"/>
<path fill="#A63974" opacity="1.000000" stroke="none" 
	d="
M180.330292,162.631317 
	C180.348984,162.984558 180.393753,163.009277 180.418335,163.014099 
	C180.712616,162.909821 180.903473,162.720947 181.013702,162.246704 
	C181.011902,162.041107 181.009735,161.982971 180.980743,161.979935 
	C180.738342,162.077286 180.524963,162.177689 180.330292,162.631317 
z"/>
<path fill="#F1F7FB" opacity="1.000000" stroke="none" 
	d="
M464.402985,277.066132 
	C461.008392,277.555511 457.730652,278.376404 454.879974,277.609650 
	C453.552185,277.252502 453.052399,273.816742 451.891693,271.110626 
	C457.100189,271.110626 460.952179,271.110626 465.415558,271.110626 
	C465.133423,273.316833 464.914062,275.032257 464.402985,277.066132 
z"/>
<path fill="#EAF3F9" opacity="1.000000" stroke="none" 
	d="
M359.963745,119.639153 
	C355.989838,126.193169 353.381165,127.534439 347.829254,125.531586 
	C350.437622,119.532814 353.027466,113.576660 355.618317,107.618111 
	C360.954376,109.935936 361.798248,112.415764 359.963745,119.639153 
z"/>
<path fill="#F7EDF2" opacity="1.000000" stroke="none" 
	d="
M126.035675,264.065979 
	C122.284393,263.846619 119.007874,263.648315 115.754211,263.451385 
	C115.933945,257.982178 119.663284,254.992676 125.468307,255.122543 
	C131.391785,255.255035 135.188217,258.563141 135.337738,264.086975 
	C132.392517,264.086975 129.451477,264.086975 126.035675,264.065979 
z"/>
<path fill="#F7EDF2" opacity="1.000000" stroke="none" 
	d="
M266.196442,107.899338 
	C264.948334,108.019211 263.897095,108.015503 262.463867,107.911560 
	C261.614716,103.898994 261.147522,99.986671 260.615784,95.534042 
	C262.641144,95.384163 264.229218,95.266640 266.223877,95.170425 
	C269.805450,98.876282 271.177429,102.735245 267.538269,107.337524 
	C266.982300,107.587646 266.680573,107.639793 266.196442,107.899338 
z"/>
<path fill="#FAF3F7" opacity="1.000000" stroke="none" 
	d="
M142.177521,215.248856 
	C144.181244,220.673950 143.010742,222.990784 137.981293,223.523758 
	C133.070663,224.044128 128.744492,222.377869 125.492851,218.636795 
	C122.633926,215.347549 123.711525,211.706985 127.929482,210.588867 
	C133.391296,209.141037 138.034637,211.014938 142.177521,215.248856 
z"/>
<path fill="#FEFEFE" opacity="1.000000" stroke="none" 
	d="
M386.608978,144.564941 
	C386.908356,144.912231 386.815918,145.383179 386.334076,145.932251 
	C386.035522,145.569778 386.126312,145.129196 386.608978,144.564941 
z"/>
<path fill="#E9CDDC" opacity="1.000000" stroke="none" 
	d="
M183.319183,138.320175 
	C183.454819,138.294144 183.640427,138.494995 183.925232,138.885590 
	C183.777267,138.945206 183.558853,138.769119 183.319183,138.320175 
z"/>
<path fill="#F7EDF2" opacity="1.000000" stroke="none" 
	d="
M158.236298,172.907898 
	C154.756500,171.009109 151.478088,168.776428 147.975952,166.280151 
	C150.876663,161.304733 153.178116,160.545837 156.975891,162.975037 
	C160.830582,165.440613 161.257004,168.240814 158.236298,172.907898 
z"/>
<path fill="#4B99CD" opacity="1.000000" stroke="none" 
	d="
M451.348145,210.398163 
	C451.460419,210.318710 451.532196,210.601715 451.532196,210.601715 
	C451.532196,210.601715 451.235870,210.477600 451.348145,210.398163 
z"/>
<path fill="#F7EDF2" opacity="1.000000" stroke="none" 
	d="
M136.282196,185.176025 
	C136.884613,180.485245 139.578064,178.796860 143.952988,180.216888 
	C148.149033,181.578873 149.479950,184.751923 147.876526,189.556564 
	C145.630035,189.315125 143.384766,188.865036 141.288513,188.037445 
	C139.624222,187.380371 138.142334,186.261261 136.282196,185.176025 
z"/>
<path fill="#DAEAF5" opacity="1.000000" stroke="none" 
	d="
M398.504456,146.912964 
	C397.403931,145.857010 396.650818,144.824951 395.683685,143.499573 
	C397.822418,142.034286 399.707977,140.742447 401.794800,139.181122 
	C403.818298,142.711243 401.049164,144.712006 398.504456,146.912964 
z"/>
</svg>